<svg version="1" xmlns="http://www.w3.org/2000/svg" width="945.333" height="945.333" viewBox="0 0 709.000000 709.000000"><path d="M319.3 6.5c-67.1 6.9-126.6 31-181.3 73.1C123.1 91 91 123.1 79.6 138c-43.8 56.8-68 118.9-73.7 188.9-1.5 17.8-.7 54 1.6 71.1 9.9 75.4 42.1 143.1 94.3 198.1 18.1 19 44.4 40.5 67.4 54.9 14.4 9 43.7 23.6 59.8 29.7 74.7 28.4 157.3 30.5 233 6.1C568.4 652.4 652.4 568.4 686.8 462c24.2-75 22.3-157.5-5.5-231.5-5.8-15.5-21.4-47.1-29.8-60.5-27.1-42.9-60.3-77.3-101.1-105C504.6 33.9 454.2 14.9 398 7.5c-17.1-2.3-61-2.9-78.7-1zm9.2 184.5c95.9 3.8 177 22.8 244.9 57.3 23.1 11.7 28.7 16.1 33 25.8 2.4 5.3 2.8 7.1 2.4 13.8-.8 17.6-14 30.5-31.3 30.5-7.7 0-8.4-.2-32-12.7-46.4-24.4-107.5-40.8-180.5-48.4-21.2-2.2-95.1-2.5-116.5-.5-31.1 2.9-61.1 8.1-85.6 14.8-6.9 1.9-14.9 3.4-17.7 3.4-16.7 0-31.2-14.8-31.2-31.9 0-11.2 6.2-22 15.7-27.3 19.9-11.2 95.9-23.6 153.8-25.1 5.5-.2 12.3-.4 15-.5 2.8-.1 16.3.3 30 .8zm6.6 121c74.9 5.8 145 26.2 203.2 59.2 16.4 9.4 21.9 16.7 21.9 28.9-.2 16.9-18.6 30.1-34.2 24.6-1.9-.7-8-3.9-13.5-7.1-46.4-26.7-105.7-44.6-170-51.2-20.8-2.2-69.6-2.5-89-.6-26.7 2.6-54.2 7.7-81.5 15.2-6.4 1.7-8.3 1.9-12.7.9-13.8-2.8-24-16.9-21.7-29.7 2-11.1 9.6-19 21.9-22.7 26.7-8.1 68.6-15.6 100-17.8 11.9-.8 63.3-.6 75.6.3zm-12.2 113c59.8 3.2 109.6 15.8 158 40.1 8.6 4.3 19 10 23.2 12.7 6.3 4.1 8 5.8 10.2 10.3 1.5 2.9 2.7 6.7 2.7 8.3 0 13.5-12.6 24.3-25.2 21.5-2.2-.6-9.7-4.2-16.6-8.1-41.4-23.7-91-37.9-145.7-41.9-19.4-1.4-58.9-.6-79.5 1.6-17.3 1.8-46.4 6.5-62.5 10-13.8 3-17.7 3.1-23 .6-16.7-7.7-16.4-31.4.5-38.5 5-2.1 35.6-8.1 56-11 23.1-3.3 36.1-4.6 54.4-5.5 22.7-1.2 26.4-1.2 47.5-.1z" fill="#2fd566"/></svg>